<?xml version="1.0" encoding="UTF-8" standalone="no"?>
<!-- Created with Inkscape (http://www.inkscape.org/) -->
<svg
   xmlns:dc="http://purl.org/dc/elements/1.1/"
   xmlns:cc="http://web.resource.org/cc/"
   xmlns:rdf="http://www.w3.org/1999/02/22-rdf-syntax-ns#"
   xmlns:svg="http://www.w3.org/2000/svg"
   xmlns="http://www.w3.org/2000/svg"
   xmlns:sodipodi="http://sodipodi.sourceforge.net/DTD/sodipodi-0.dtd"
   xmlns:inkscape="http://www.inkscape.org/namespaces/inkscape"
   width="128"
   height="128"
   id="svg2167"
   sodipodi:version="0.32"
   inkscape:version="0.45.1"
   version="1.0"
   sodipodi:docbase="/home/cbrill/Desktop"
   sodipodi:docname="thumb2.svg"
   inkscape:output_extension="org.inkscape.output.svg.inkscape">
  <defs
     id="defs2169" />
  <sodipodi:namedview
     id="base"
     pagecolor="#ffffff"
     bordercolor="#666666"
     borderopacity="1.0"
     inkscape:pageopacity="0.0"
     inkscape:pageshadow="2"
     inkscape:zoom="5.6"
     inkscape:cx="79.054708"
     inkscape:cy="39.45086"
     inkscape:document-units="px"
     inkscape:current-layer="layer1"
     width="128px"
     height="128px"
     inkscape:window-width="872"
     inkscape:window-height="621"
     inkscape:window-x="199"
     inkscape:window-y="134" />
  <metadata
     id="metadata2172">
    <rdf:RDF>
      <cc:Work
         rdf:about="">
        <dc:format>image/svg+xml</dc:format>
        <dc:type
           rdf:resource="http://purl.org/dc/dcmitype/StillImage" />
        <dc:title>Thumb Up!</dc:title>
        <dc:date>2007-11-30</dc:date>
        <dc:creator>
          <cc:Agent>
            <dc:title>Christoph Brill</dc:title>
          </cc:Agent>
        </dc:creator>
      </cc:Work>
    </rdf:RDF>
  </metadata>
  <g
     inkscape:label="Ebene 1"
     inkscape:groupmode="layer"
     id="layer1">
    <path
       sodipodi:nodetypes="cccccssccscsccsssssscsssccssc"
       id="path3128"
       d="M 41.170639,110.94497 C 42.131869,113.28037 42.056699,113.0115 42.896889,114.1923 C 41.969312,115.97194 44.898116,118.97037 48.383799,119.76051 C 49.507048,120.56961 49.903311,120.30025 52.299619,121.27211 C 58.356641,122.77968 66.085401,121.9375 70.823561,121.81605 C 75.124991,121.51645 79.41525,120.17798 81.280831,119.44983 C 84.661022,118.13049 86.78171,116.82102 88.335754,114.25496 C 91.046488,109.77894 90.113227,106.17538 87.706007,104.18412 C 90.382541,101.51454 91.669184,97.152614 90.704161,93.898234 C 94.508891,91.209724 95.540465,84.271374 94.863987,78.085094 C 94.522513,74.962334 93.036658,72.780764 92.072269,71.443744 C 92.782581,65.900674 91.599915,60.272684 89.120714,56.268294 C 87.41304,53.510084 83.940323,50.110774 80.519977,50.024434 C 77.099631,49.938094 69.415201,52.354294 68.403481,47.244774 C 67.391761,42.135254 72.371751,35.082944 73.534111,27.675154 C 74.248791,23.120434 70.474441,17.739634 67.980861,14.215834 C 65.494381,10.702094 62.041921,8.7951439 57.684111,6.7658539 C 54.096361,5.0951639 48.415189,5.5675339 45.925219,9.1570439 C 43.260689,12.998194 44.090429,19.239174 45.092349,23.858744 C 45.998149,28.035154 47.695539,31.970064 48.287689,36.273354 C 48.868549,40.494514 50.164909,48.246034 49.106779,52.050464 C 45.882339,55.056064 42.600159,55.099934 38.986699,57.093044 C 35.594339,58.964204 33.823939,63.176654 34.548469,66.919794 C 35.061549,69.570474 37.958069,71.349814 35.739289,74.091144 C 33.091899,77.361994 31.481839,82.297624 34.836819,85.210614 C 38.191789,88.123604 37.687799,89.385374 38.188199,89.851284 C 38.688589,90.317194 38.787859,91.454134 37.586109,94.610074 C 35.645569,99.706164 34.969639,100.12145 38.922519,103.72618 C 40.390999,105.06533 37.396909,110.17207 41.170639,110.94497 z "
       style="fill:#ffffff;fill-opacity:1;stroke:none;stroke-opacity:1" />
    <path
       style="fill:#000000;fill-opacity:1;stroke:none;stroke-opacity:1"
       d="M 70.823561,121.81605 C 66.085401,121.9375 58.356641,122.77968 52.299619,121.27211 C 55.656491,121.47531 58.548621,121.04894 60.086071,120.88674 C 63.462791,120.53055 67.192471,119.57209 69.944951,118.59737 C 73.064041,117.49283 73.672841,117.04139 75.670361,115.85783 C 75.414041,117.17356 74.791451,118.5315 73.803671,119.4424 C 77.198442,118.50835 84.499756,116.10462 86.492036,113.18378 C 88.429655,110.34307 88.601101,107.29043 85.496095,104.79093 C 84.373291,103.94306 84.024458,102.19986 85.806965,103.01437 C 86.38267,102.27147 87.779458,99.728974 88.111128,97.979504 C 88.804697,94.321204 87.263038,88.117034 84.182962,85.576144 C 86.172142,86.359534 88.959955,89.356624 90.046062,91.031534 C 92.927379,88.060044 93.779873,82.897434 93.113685,77.978004 C 92.248692,71.590494 90.014835,69.799834 84.73879,66.649764 C 87.881122,67.168244 89.359604,68.258974 90.643189,69.495754 C 91.074018,65.302684 89.530354,60.906084 87.570339,57.233014 C 86.14698,54.565644 83.449894,51.867614 80.519977,50.024434 C 83.940323,50.110774 87.41304,53.510084 89.120714,56.268294 C 91.599915,60.272684 92.782581,65.900674 92.072269,71.443744 C 93.036658,72.780764 94.522513,74.962334 94.863987,78.085094 C 95.540465,84.271374 94.508891,91.209724 90.704161,93.898234 C 91.669184,97.152614 90.382541,101.51454 87.706007,104.18412 C 90.113227,106.17538 91.046488,109.77894 88.335754,114.25496 C 86.78171,116.82102 84.661022,118.13049 81.280831,119.44983 C 79.41525,120.17798 75.124991,121.51645 70.823561,121.81605 z M 38.188199,89.851284 C 37.687799,89.385374 38.191789,88.123604 34.836819,85.210614 C 31.481839,82.297624 33.091899,77.361994 35.739289,74.091144 C 37.958069,71.349814 35.061549,69.570474 34.548469,66.919794 C 33.823939,63.176654 35.594339,58.964204 38.986699,57.093044 C 42.600159,55.099934 45.882339,55.056064 49.106779,52.050464 C 50.164909,48.246034 48.868549,40.494514 48.287689,36.273354 C 47.695539,31.970064 45.998149,28.035154 45.092349,23.858744 C 44.090429,19.239174 43.260689,12.998194 45.925219,9.1570439 C 48.415189,5.5675339 54.096361,5.0951639 57.684111,6.7658539 C 62.041921,8.7951439 65.494381,10.702094 67.980861,14.215834 C 70.474441,17.739634 74.248791,23.120434 73.534111,27.675154 C 72.371751,35.082944 67.391761,42.135254 68.403481,47.244774 C 65.966661,43.090294 71.277011,33.683014 71.741501,28.023024 C 72.173861,22.702744 68.977341,18.506994 66.513141,15.196274 C 64.930081,13.069374 61.283261,10.188154 57.806571,8.8197839 C 54.962951,7.7005739 51.113399,6.4705439 47.985389,9.9913339 C 45.137169,13.009924 46.044469,19.803564 46.974489,23.387494 C 48.263719,28.355684 49.794549,33.154204 50.510939,39.072884 C 50.972909,42.889654 51.164149,48.006724 50.773309,52.049874 C 52.388179,52.768974 57.845431,50.486174 60.978181,49.820704 C 65.238851,48.915624 70.426461,46.809454 74.687691,49.443604 C 68.527361,48.927964 63.869771,50.382564 58.460261,51.940494 C 54.426811,53.102114 50.470919,54.609784 46.497499,55.894614 C 43.451409,57.157874 39.926599,58.357294 37.782079,60.779344 C 35.855469,62.955274 35.108689,65.336334 37.645909,67.812734 C 41.030029,71.115744 37.019619,74.976584 35.034559,77.597314 C 32.367939,81.117874 36.912969,83.907404 38.798349,86.372714 C 40.857029,89.064634 39.307489,93.545424 37.961699,96.678164 C 36.567509,99.923604 38.990399,99.933374 40.975779,103.75712 C 42.120859,105.9625 39.874969,108.78161 41.170639,110.94497 C 37.396909,110.17207 40.390999,105.06533 38.922519,103.72618 C 34.969639,100.12145 35.645569,99.706164 37.586109,94.610074 C 38.787859,91.454134 38.688589,90.317194 38.188199,89.851284 z M 48.383799,119.76051 C 46.304349,119.39492 41.900229,116.74798 42.896889,114.1923 C 43.737079,115.90881 48.956979,116.80855 48.383799,119.76051 L 48.383799,119.76051 z M 61.944051,106.0826 C 60.070141,105.70878 54.915861,101.74929 57.493391,101.28654 C 61.287781,102.32686 65.469701,104.35839 69.588021,103.28335 C 73.700151,102.20991 78.712808,101.30953 82.507952,102.99747 C 78.500154,103.54114 75.762845,104.51196 71.890071,105.2329 C 68.760541,105.81549 65.209391,106.73398 61.944051,106.0826 z M 82.599485,97.052304 C 83.810322,93.992764 80.297493,88.426484 82.190947,87.490244 C 83.123059,90.474514 87.048271,93.577164 84.078499,96.254254 C 83.922706,96.653754 83.092709,98.111094 82.599485,97.052304 z M 53.449791,87.358584 C 49.500679,84.255794 50.526269,83.471524 52.869781,84.041934 C 55.361961,84.648514 61.502121,84.966554 63.285491,84.544934 C 67.279171,83.600754 75.427651,81.900984 78.752617,84.910394 C 75.257931,84.333494 68.644881,86.015124 64.289191,86.725644 C 61.857651,87.122274 55.382531,88.877134 53.449791,87.358584 z M 80.596084,81.454004 C 84.02012,79.165214 80.413178,71.584134 83.664027,70.673714 C 84.900881,74.123284 85.877771,81.264664 80.813289,81.694264 L 80.596089,81.454014 L 80.596084,81.454004 z M 51.358349,70.368364 C 47.750589,68.816654 47.835069,66.802844 52.500609,67.236454 C 58.270181,67.772684 64.357171,66.342544 69.858661,65.638074 C 73.432941,65.180374 79.606826,64.459574 82.079845,65.986084 C 77.633542,66.773784 72.981011,66.859144 68.739291,68.164734 C 63.829991,69.675814 52.107579,70.690624 51.358349,70.368364 z M 79.145086,52.109884 C 81.356839,54.214244 84.099868,57.760524 81.732109,60.849754 C 82.046922,57.455914 78.805672,55.042494 79.145086,52.109884 z M 53.232611,38.288304 C 54.787401,34.551104 61.305021,36.243034 65.150331,36.103174 C 68.229611,38.978454 62.456401,37.601404 60.762231,37.944104 C 58.493281,37.495924 54.835871,40.768974 53.232611,38.288304 z "
       id="path8092"
       sodipodi:nodetypes="ccssccsccsccsccscscsccsscccssscsssssscssscsscscscsssssscsscccccccscsscccccsccssccccccsscssccccccc" />
  </g>
</svg>
